<svg xmlns="http://www.w3.org/2000/svg" xmlns:xlink="http://www.w3.org/1999/xlink" viewBox="0 0 378.5 237.04"><defs><style>.cls-1{isolation:isolate;}.cls-2{opacity:0.7;mix-blend-mode:multiply;}.cls-3{fill:#fff;opacity:0;}.cls-4{fill:#fafbfb;opacity:0.02;}.cls-5{fill:#f5f7f8;opacity:0.05;}.cls-6{fill:#f0f2f4;opacity:0.07;}.cls-7{fill:#ebeef1;opacity:0.1;}.cls-8{fill:#e6eaed;opacity:0.12;}.cls-9{fill:#e1e6ea;opacity:0.15;}.cls-10{fill:#dce2e6;opacity:0.17;}.cls-11{fill:#d7dde3;opacity:0.2;}.cls-12{fill:#d2d9df;opacity:0.22;}.cls-13{fill:#cdd5dc;opacity:0.24;}.cls-14{fill:#c7d1d8;opacity:0.27;}.cls-15{fill:#c2cdd5;opacity:0.29;}.cls-16{fill:#bdc8d1;opacity:0.32;}.cls-17{fill:#b8c4cd;opacity:0.34;}.cls-18{fill:#b3c0ca;opacity:0.37;}.cls-19{fill:#aebcc6;opacity:0.39;}.cls-20{fill:#a9b8c3;opacity:0.41;}.cls-21{fill:#a4b3bf;opacity:0.44;}.cls-22{fill:#9fafbc;opacity:0.46;}.cls-23{fill:#9aabb8;opacity:0.49;}.cls-24{fill:#95a7b5;opacity:0.51;}.cls-25{fill:#90a3b1;opacity:0.54;}.cls-26{fill:#8b9fae;opacity:0.56;}.cls-27{fill:#869aaa;opacity:0.59;}.cls-28{fill:#8196a7;opacity:0.61;}.cls-29{fill:#7c92a3;opacity:0.63;}.cls-30{fill:#778ea0;opacity:0.66;}.cls-31{fill:#728a9c;opacity:0.68;}.cls-32{fill:#6d8598;opacity:0.71;}.cls-33{fill:#688195;opacity:0.73;}.cls-34{fill:#627d91;opacity:0.76;}.cls-35{fill:#5d798e;opacity:0.78;}.cls-36{fill:#58758a;opacity:0.8;}.cls-37{fill:#537087;opacity:0.83;}.cls-38{fill:#4e6c83;opacity:0.85;}.cls-39{fill:#496880;opacity:0.88;}.cls-40{fill:#44647c;opacity:0.9;}.cls-41{fill:#3f6079;opacity:0.93;}.cls-42{fill:#3a5b75;opacity:0.95;}.cls-43{fill:#355772;opacity:0.98;}.cls-44{fill:#30536e;}.cls-45{stroke:#fff;stroke-miterlimit:10;fill:url(#radial-gradient);}</style><radialGradient id="radial-gradient" cx="192.36" cy="134.07" r="204.46" gradientTransform="translate(0 38.33) scale(1 0.71)" gradientUnits="userSpaceOnUse"><stop offset="0" stop-color="#fff"/><stop offset="0.41" stop-color="#fdfefe"/><stop offset="0.64" stop-color="#f4fafb"/><stop offset="0.84" stop-color="#e6f3f5"/><stop offset="1" stop-color="#d3eaed"/></radialGradient></defs><g class="cls-1"><g id="Capa_2" data-name="Capa 2"><g id="Objects"><g class="cls-2"><path class="cls-3" d="M333.2,104.46a45.81,45.81,0,0,0-9.21.94,39.55,39.55,0,0,0-35.51-22.16c-.6,0-1.19.06-1.79.09-2.61-21.13-22.49-37.56-46.64-37.56a50,50,0,0,0-29.66,9.52c-13.64-19.46-35.63-32.1-60.45-32.1-39.36,0-71.6,31.76-74.69,72.13a43.4,43.4,0,1,0-12,85.79,56.73,56.73,0,0,0,96.69,28.83,39.41,39.41,0,0,0,52.59,5.28,62,62,0,0,0,47,21.82c27.58,0,51-18.43,59.79-44.16a45.3,45.3,0,1,0,13.89-88.42Z"/><path class="cls-4" d="M332.64,103.91a45.72,45.72,0,0,0-9.2.94,39.56,39.56,0,0,0-35.51-22.17c-.61,0-1.2.07-1.8.09-2.6-21.12-22.48-37.55-46.63-37.55a50,50,0,0,0-29.66,9.52c-13.64-19.46-35.64-32.1-60.46-32.1C110,22.64,77.78,54.4,74.7,94.76a44,44,0,0,0-8.64-.86,43.4,43.4,0,0,0-3.39,86.66,56.74,56.74,0,0,0,96.69,28.83A39.44,39.44,0,0,0,212,214.67a62.07,62.07,0,0,0,47,21.82c27.58,0,51-18.43,59.78-44.16a45.3,45.3,0,1,0,13.89-88.42Z"/><path class="cls-5" d="M332.09,103.36a45,45,0,0,0-9.2.94,39.56,39.56,0,0,0-35.52-22.17c-.6,0-1.19.06-1.79.09C283,61.09,263.09,44.66,239,44.66a50,50,0,0,0-29.67,9.52c-13.64-19.45-35.63-32.09-60.45-32.09-39.35,0-71.6,31.75-74.69,72.12a43.88,43.88,0,0,0-8.64-.86A43.4,43.4,0,0,0,62.12,180a56.74,56.74,0,0,0,96.69,28.83,39.44,39.44,0,0,0,52.59,5.28,62.07,62.07,0,0,0,47,21.82c27.58,0,51-18.43,59.79-44.17a45.3,45.3,0,1,0,13.89-88.41Z"/><path class="cls-6" d="M331.54,102.8a45.81,45.81,0,0,0-9.21.94,39.55,39.55,0,0,0-35.51-22.16c-.6,0-1.19.06-1.79.09-2.61-21.13-22.49-37.56-46.64-37.56a50,50,0,0,0-29.66,9.52c-13.64-19.46-35.63-32.1-60.45-32.1-39.36,0-71.6,31.76-74.69,72.13a43.4,43.4,0,1,0-12,85.79,56.73,56.73,0,0,0,96.69,28.83,39.41,39.41,0,0,0,52.59,5.28,62.05,62.05,0,0,0,47,21.82c27.58,0,51-18.43,59.79-44.16a45.3,45.3,0,1,0,13.89-88.42Z"/><path class="cls-7" d="M331,102.25a45.72,45.72,0,0,0-9.2.94A39.56,39.56,0,0,0,286.27,81c-.61,0-1.2.07-1.8.09C281.86,60,262,43.56,237.84,43.56a50,50,0,0,0-29.66,9.52C194.54,33.62,172.54,21,147.72,21,108.37,21,76.12,52.74,73,93.1a44.05,44.05,0,0,0-8.65-.86A43.4,43.4,0,0,0,61,178.9a56.74,56.74,0,0,0,96.69,28.83A39.44,39.44,0,0,0,210.29,213a62.07,62.07,0,0,0,47,21.82c27.58,0,51-18.43,59.78-44.16A45.3,45.3,0,1,0,331,102.25Z"/><path class="cls-8" d="M330.43,101.7a45.71,45.71,0,0,0-9.2.93,39.57,39.57,0,0,0-35.52-22.16c-.6,0-1.19.06-1.79.09C281.31,59.43,261.43,43,237.29,43a50,50,0,0,0-29.67,9.52C194,33.07,172,20.43,147.17,20.43c-39.35,0-71.6,31.75-74.69,72.12a43.88,43.88,0,0,0-8.64-.86,43.4,43.4,0,0,0-3.38,86.66,56.74,56.74,0,0,0,96.69,28.83,39.44,39.44,0,0,0,52.59,5.28,62.07,62.07,0,0,0,47,21.82c27.58,0,51-18.43,59.79-44.17a45.3,45.3,0,1,0,13.89-88.41Z"/><path class="cls-9" d="M329.88,101.14a45.81,45.81,0,0,0-9.21.94,39.55,39.55,0,0,0-35.51-22.16c-.61,0-1.19.06-1.79.09-2.61-21.13-22.49-37.56-46.64-37.56A50,50,0,0,0,207.07,52c-13.64-19.46-35.63-32.1-60.45-32.1C107.26,19.87,75,51.63,71.93,92a43.4,43.4,0,1,0-12,85.79,56.74,56.74,0,0,0,96.69,28.83,39.4,39.4,0,0,0,52.58,5.28,62.09,62.09,0,0,0,47,21.82c27.58,0,51-18.43,59.78-44.16a45.3,45.3,0,1,0,13.9-88.42Z"/><path class="cls-10" d="M329.32,100.59a45,45,0,0,0-9.2.94,39.56,39.56,0,0,0-35.51-22.17c-.61,0-1.2.07-1.8.09-2.61-21.12-22.48-37.56-46.63-37.56a50,50,0,0,0-29.66,9.53c-13.64-19.46-35.64-32.1-60.46-32.1-39.35,0-71.6,31.76-74.68,72.12a44.05,44.05,0,0,0-8.65-.86,43.4,43.4,0,0,0-3.38,86.66A56.74,56.74,0,0,0,156,206.07a39.44,39.44,0,0,0,52.59,5.28,62.07,62.07,0,0,0,47,21.82c27.58,0,51-18.43,59.78-44.16a45.3,45.3,0,1,0,13.89-88.42Z"/><path class="cls-11" d="M328.77,100a45.71,45.71,0,0,0-9.2.93,39.58,39.58,0,0,0-35.52-22.16c-.6,0-1.19.06-1.79.09-2.61-21.13-22.49-37.56-46.63-37.56A50,50,0,0,0,206,50.86c-13.64-19.46-35.63-32.09-60.45-32.09-39.36,0-71.6,31.75-74.69,72.12A43.88,43.88,0,0,0,62.18,90a43.4,43.4,0,0,0-3.38,86.66,56.74,56.74,0,0,0,96.69,28.84,39.44,39.44,0,0,0,52.59,5.28,62.07,62.07,0,0,0,47,21.82c27.58,0,51-18.43,59.79-44.17A45.3,45.3,0,1,0,328.77,100Z"/><path class="cls-12" d="M328.21,99.48a45.79,45.79,0,0,0-9.2.94A39.56,39.56,0,0,0,283.5,78.25c-.61,0-1.2.07-1.79.1-2.61-21.13-22.49-37.56-46.64-37.56a50,50,0,0,0-29.66,9.52c-13.64-19.46-35.63-32.1-60.46-32.1-39.35,0-71.6,31.76-74.68,72.13a43.4,43.4,0,1,0-12,85.79A56.74,56.74,0,0,0,154.94,205a39.43,39.43,0,0,0,52.58,5.28,62.09,62.09,0,0,0,47,21.82c27.58,0,51-18.43,59.78-44.16a45.3,45.3,0,1,0,13.89-88.42Z"/><path class="cls-13" d="M327.66,98.93a45,45,0,0,0-9.2.94A39.56,39.56,0,0,0,283,77.7c-.61,0-1.2.07-1.8.09-2.61-21.12-22.48-37.56-46.63-37.56a50,50,0,0,0-29.66,9.52C191.22,30.3,169.22,17.66,144.4,17.66c-39.35,0-71.6,31.76-74.69,72.12a43.88,43.88,0,0,0-8.64-.86,43.4,43.4,0,0,0-3.38,86.66,56.74,56.74,0,0,0,96.69,28.83A39.44,39.44,0,0,0,207,209.69a62.07,62.07,0,0,0,47,21.82c27.59,0,51-18.43,59.79-44.16a45.3,45.3,0,1,0,13.89-88.42Z"/><path class="cls-14" d="M327.11,98.37a45.64,45.64,0,0,0-9.2.94,39.58,39.58,0,0,0-35.52-22.16c-.6,0-1.19.06-1.79.09C278,56.11,258.11,39.68,234,39.68A50,50,0,0,0,204.3,49.2c-13.64-19.46-35.63-32.1-60.45-32.1-39.36,0-71.6,31.76-74.69,72.13a43.88,43.88,0,0,0-8.64-.87A43.39,43.39,0,0,0,57.14,175a56.74,56.74,0,0,0,96.69,28.84,39.44,39.44,0,0,0,52.59,5.28,62.07,62.07,0,0,0,47,21.82c27.58,0,51-18.43,59.79-44.17a45.3,45.3,0,1,0,13.89-88.42Z"/><path class="cls-15" d="M326.55,97.82a45.72,45.72,0,0,0-9.2.94,39.56,39.56,0,0,0-35.51-22.17c-.61,0-1.2.07-1.79.09-2.61-21.12-22.49-37.55-46.64-37.55a50,50,0,0,0-29.66,9.52c-13.64-19.46-35.63-32.1-60.46-32.1-39.35,0-71.6,31.76-74.68,72.13a43.4,43.4,0,1,0-12,85.79,56.75,56.75,0,0,0,96.7,28.83,39.43,39.43,0,0,0,52.58,5.28,62.09,62.09,0,0,0,47,21.82c27.58,0,51-18.43,59.78-44.16a45.3,45.3,0,1,0,13.89-88.42Z"/><path class="cls-16" d="M326,97.27a45,45,0,0,0-9.2.94A39.56,39.56,0,0,0,281.29,76c-.61,0-1.2.06-1.8.09C276.88,55,257,38.57,232.86,38.57a50.06,50.06,0,0,0-29.67,9.52C189.55,28.64,167.56,16,142.74,16c-39.35,0-71.6,31.76-74.69,72.12a43.88,43.88,0,0,0-8.64-.86A43.4,43.4,0,0,0,56,173.92a56.74,56.74,0,0,0,96.69,28.83A39.44,39.44,0,0,0,205.31,208a62.07,62.07,0,0,0,47,21.82c27.59,0,51.05-18.43,59.79-44.16A45.3,45.3,0,1,0,326,97.27Z"/><path class="cls-17" d="M325.45,96.71a45.64,45.64,0,0,0-9.2.94,39.58,39.58,0,0,0-35.52-22.16c-.6,0-1.19.06-1.79.09C276.33,54.45,256.45,38,232.3,38a50,50,0,0,0-29.66,9.52C189,28.08,167,15.44,142.19,15.44c-39.36,0-71.6,31.76-74.69,72.13a43.88,43.88,0,0,0-8.64-.87,43.39,43.39,0,0,0-3.38,86.66,56.73,56.73,0,0,0,96.69,28.83,39.41,39.41,0,0,0,52.59,5.28,62,62,0,0,0,47,21.82c27.58,0,51-18.42,59.79-44.16a45.3,45.3,0,1,0,13.89-88.42Z"/><path class="cls-18" d="M324.89,96.16a45.72,45.72,0,0,0-9.2.94,39.56,39.56,0,0,0-35.51-22.17c-.61,0-1.2.07-1.79.09-2.61-21.12-22.49-37.55-46.64-37.55A50,50,0,0,0,202.09,47c-13.64-19.46-35.64-32.1-60.46-32.1C102.28,14.89,70,46.65,67,87a43.4,43.4,0,1,0-12,85.79,56.75,56.75,0,0,0,96.7,28.83,39.43,39.43,0,0,0,52.58,5.28,62.07,62.07,0,0,0,47,21.82c27.58,0,51-18.43,59.78-44.16a45.3,45.3,0,1,0,13.89-88.42Z"/><path class="cls-19" d="M324.34,95.61a45,45,0,0,0-9.2.94,39.56,39.56,0,0,0-35.51-22.17c-.61,0-1.2.06-1.8.09-2.61-21.13-22.49-37.56-46.63-37.56a50,50,0,0,0-29.67,9.52C187.89,27,165.9,14.34,141.08,14.34c-39.35,0-71.6,31.76-74.69,72.12a43.88,43.88,0,0,0-8.64-.86,43.4,43.4,0,0,0-3.38,86.66,56.74,56.74,0,0,0,96.69,28.83,39.44,39.44,0,0,0,52.59,5.28,62.07,62.07,0,0,0,47,21.82c27.59,0,51-18.43,59.79-44.17a45.3,45.3,0,1,0,13.89-88.41Z"/><path class="cls-20" d="M323.79,95.05a45.64,45.64,0,0,0-9.2.94,39.58,39.58,0,0,0-35.52-22.16c-.6,0-1.19.06-1.79.09-2.61-21.13-22.49-37.56-46.64-37.56A50,50,0,0,0,201,45.88c-13.64-19.46-35.63-32.1-60.45-32.1-39.36,0-71.6,31.76-74.69,72.13a43.4,43.4,0,1,0-12,85.79,56.73,56.73,0,0,0,96.69,28.83,39.41,39.41,0,0,0,52.59,5.28,62,62,0,0,0,47,21.82c27.58,0,51-18.42,59.79-44.16a45.3,45.3,0,1,0,13.89-88.42Z"/><path class="cls-21" d="M323.23,94.5a45.72,45.72,0,0,0-9.2.94,39.56,39.56,0,0,0-35.51-22.17c-.61,0-1.2.07-1.8.09-2.6-21.12-22.48-37.55-46.63-37.55a50,50,0,0,0-29.66,9.52c-13.64-19.46-35.64-32.1-60.46-32.1-39.35,0-71.6,31.76-74.68,72.13a43.4,43.4,0,1,0-12,85.79A56.75,56.75,0,0,0,150,200a39.43,39.43,0,0,0,52.58,5.28,62.07,62.07,0,0,0,47,21.82c27.58,0,51-18.43,59.78-44.16A45.3,45.3,0,1,0,323.23,94.5Z"/><path class="cls-22" d="M322.68,94a45,45,0,0,0-9.2.94A39.56,39.56,0,0,0,278,72.72c-.6,0-1.19.06-1.79.09-2.61-21.13-22.49-37.56-46.63-37.56a50,50,0,0,0-29.67,9.52c-13.64-19.45-35.63-32.09-60.45-32.09-39.35,0-71.6,31.76-74.69,72.12a43.88,43.88,0,0,0-8.64-.86,43.4,43.4,0,0,0-3.38,86.66,56.74,56.74,0,0,0,96.69,28.83A39.44,39.44,0,0,0,202,204.71a62.07,62.07,0,0,0,47,21.82c27.59,0,51.05-18.43,59.79-44.17A45.3,45.3,0,1,0,322.68,94Z"/><path class="cls-23" d="M322.13,93.39a45.81,45.81,0,0,0-9.21.94,39.55,39.55,0,0,0-35.51-22.16c-.6,0-1.19.06-1.79.09C273,51.13,253.13,34.7,229,34.7a50,50,0,0,0-29.66,9.52c-13.64-19.46-35.63-32.1-60.45-32.1-39.36,0-71.6,31.76-74.69,72.13a43.4,43.4,0,1,0-12,85.79,56.73,56.73,0,0,0,96.69,28.83,39.41,39.41,0,0,0,52.59,5.28,62,62,0,0,0,47,21.82c27.58,0,51-18.43,59.79-44.16a45.3,45.3,0,1,0,13.89-88.42Z"/><path class="cls-24" d="M321.57,92.84a45.72,45.72,0,0,0-9.2.94,39.56,39.56,0,0,0-35.51-22.17c-.61,0-1.2.07-1.8.09-2.6-21.12-22.48-37.55-46.63-37.55a50,50,0,0,0-29.66,9.52c-13.64-19.46-35.64-32.1-60.46-32.1-39.35,0-71.6,31.76-74.68,72.12A44,44,0,0,0,55,82.83a43.4,43.4,0,0,0-3.39,86.66,56.74,56.74,0,0,0,96.69,28.83,39.44,39.44,0,0,0,52.59,5.28,62.07,62.07,0,0,0,47,21.82c27.58,0,51-18.43,59.78-44.16a45.3,45.3,0,1,0,13.89-88.42Z"/><path class="cls-25" d="M321,92.29a45,45,0,0,0-9.2.94A39.56,39.56,0,0,0,276.3,71.06c-.6,0-1.19.06-1.79.09C271.9,50,252,33.59,227.88,33.59a50,50,0,0,0-29.67,9.52C184.57,23.66,162.58,11,137.76,11c-39.35,0-71.6,31.75-74.69,72.12a43.88,43.88,0,0,0-8.64-.86,43.4,43.4,0,0,0-3.38,86.66,56.74,56.74,0,0,0,96.69,28.83,39.44,39.44,0,0,0,52.59,5.28,62.07,62.07,0,0,0,47,21.82c27.58,0,51-18.43,59.79-44.17A45.3,45.3,0,1,0,321,92.29Z"/><path class="cls-26" d="M320.47,91.73a45.81,45.81,0,0,0-9.21.94,39.55,39.55,0,0,0-35.51-22.16c-.6,0-1.19.06-1.79.09C271.35,49.47,251.47,33,227.32,33a50,50,0,0,0-29.66,9.52C184,23.1,162,10.46,137.21,10.46c-39.36,0-71.6,31.76-74.69,72.13a43.4,43.4,0,1,0-12,85.79,56.73,56.73,0,0,0,96.69,28.83,39.41,39.41,0,0,0,52.59,5.28,62,62,0,0,0,47,21.82c27.58,0,51-18.43,59.79-44.16a45.3,45.3,0,1,0,13.89-88.42Z"/><path class="cls-27" d="M319.91,91.18a45.72,45.72,0,0,0-9.2.94A39.56,39.56,0,0,0,275.2,70c-.61,0-1.2.07-1.8.09-2.6-21.12-22.48-37.55-46.63-37.55A50,50,0,0,0,197.11,42c-13.64-19.46-35.64-32.1-60.46-32.1C97.3,9.91,65.05,41.67,62,82a44.05,44.05,0,0,0-8.65-.86,43.4,43.4,0,0,0-3.38,86.66,56.74,56.74,0,0,0,96.69,28.83,39.44,39.44,0,0,0,52.59,5.28,62.07,62.07,0,0,0,47,21.82c27.58,0,51-18.43,59.78-44.16a45.3,45.3,0,1,0,13.89-88.42Z"/><path class="cls-28" d="M319.36,90.63a45.71,45.71,0,0,0-9.2.93A39.57,39.57,0,0,0,274.64,69.4c-.6,0-1.19.06-1.79.09-2.61-21.13-22.49-37.56-46.63-37.56a50,50,0,0,0-29.67,9.52C182.91,22,160.92,9.36,136.1,9.36c-39.35,0-71.6,31.75-74.69,72.12a43.88,43.88,0,0,0-8.64-.86,43.4,43.4,0,0,0-3.38,86.66,56.74,56.74,0,0,0,96.69,28.83,39.44,39.44,0,0,0,52.59,5.28,62.07,62.07,0,0,0,47,21.82c27.58,0,51-18.43,59.79-44.17a45.3,45.3,0,1,0,13.89-88.41Z"/><path class="cls-29" d="M318.81,90.07a45.81,45.81,0,0,0-9.21.94,39.55,39.55,0,0,0-35.51-22.16c-.61,0-1.19.06-1.79.09-2.61-21.13-22.49-37.56-46.64-37.56A50,50,0,0,0,196,40.9C182.36,21.44,160.37,8.8,135.55,8.8c-39.36,0-71.61,31.76-74.69,72.13a43.4,43.4,0,1,0-12,85.79,56.73,56.73,0,0,0,96.69,28.83,39.4,39.4,0,0,0,52.58,5.28,62.09,62.09,0,0,0,47,21.82c27.58,0,51-18.43,59.78-44.16a45.3,45.3,0,1,0,13.9-88.42Z"/><path class="cls-30" d="M318.25,89.52a45,45,0,0,0-9.2.94,39.56,39.56,0,0,0-35.51-22.17c-.61,0-1.2.07-1.8.09-2.61-21.12-22.48-37.56-46.63-37.56a50,50,0,0,0-29.66,9.53C181.81,20.89,159.81,8.25,135,8.25,95.64,8.25,63.39,40,60.31,80.37a44.05,44.05,0,0,0-8.65-.86,43.4,43.4,0,0,0-3.38,86.66A56.74,56.74,0,0,0,145,195a39.44,39.44,0,0,0,52.59,5.28,62.07,62.07,0,0,0,47,21.82c27.58,0,51-18.43,59.78-44.16a45.3,45.3,0,1,0,13.89-88.42Z"/><path class="cls-31" d="M317.7,89a45.71,45.71,0,0,0-9.2.93A39.57,39.57,0,0,0,273,67.74c-.6,0-1.19.06-1.79.09-2.61-21.13-22.49-37.56-46.63-37.56a50,50,0,0,0-29.67,9.52C181.25,20.33,159.26,7.7,134.44,7.7c-39.36,0-71.6,31.75-74.69,72.12A43.88,43.88,0,0,0,51.11,79a43.39,43.39,0,0,0-3.38,86.65,56.74,56.74,0,0,0,96.69,28.84A39.44,39.44,0,0,0,197,199.73a62.07,62.07,0,0,0,47,21.82c27.58,0,51-18.43,59.79-44.17A45.3,45.3,0,1,0,317.7,89Z"/><path class="cls-32" d="M317.14,88.41a45.79,45.79,0,0,0-9.2.94,39.56,39.56,0,0,0-35.51-22.17c-.61,0-1.19.07-1.79.1C268,46.15,248.15,29.72,224,29.72a50,50,0,0,0-29.66,9.52c-13.64-19.46-35.63-32.1-60.46-32.1-39.35,0-71.6,31.76-74.68,72.13a43.4,43.4,0,1,0-12,85.79,56.74,56.74,0,0,0,96.69,28.83,39.43,39.43,0,0,0,52.58,5.28,62.09,62.09,0,0,0,47,21.82c27.58,0,51-18.43,59.78-44.16a45.3,45.3,0,1,0,13.89-88.42Z"/><path class="cls-33" d="M316.59,87.86a45,45,0,0,0-9.2.94,39.56,39.56,0,0,0-35.51-22.17c-.61,0-1.2.07-1.8.09-2.61-21.12-22.48-37.56-46.63-37.56a50,50,0,0,0-29.66,9.53c-13.64-19.46-35.64-32.1-60.46-32.1C94,6.59,61.73,38.35,58.64,78.71A43.88,43.88,0,0,0,50,77.85a43.4,43.4,0,0,0-3.38,86.66,56.74,56.74,0,0,0,96.69,28.83,39.44,39.44,0,0,0,52.59,5.28,62.07,62.07,0,0,0,47,21.82c27.59,0,51-18.43,59.79-44.16a45.3,45.3,0,1,0,13.89-88.42Z"/><path class="cls-34" d="M316,87.31a45.64,45.64,0,0,0-9.2.93,39.58,39.58,0,0,0-35.52-22.16c-.6,0-1.19.06-1.79.09C266.92,45,247,28.61,222.9,28.61a50,50,0,0,0-29.67,9.52C179.59,18.67,157.6,6,132.78,6,93.42,6,61.18,37.79,58.09,78.16a43.88,43.88,0,0,0-8.64-.87A43.39,43.39,0,0,0,46.07,164a56.74,56.74,0,0,0,96.69,28.84,39.44,39.44,0,0,0,52.59,5.28,62.07,62.07,0,0,0,47,21.82c27.58,0,51-18.43,59.79-44.17A45.3,45.3,0,1,0,316,87.31Z"/><path class="cls-35" d="M315.48,86.75a45.72,45.72,0,0,0-9.2.94,39.56,39.56,0,0,0-35.51-22.17c-.61,0-1.2.07-1.79.09-2.61-21.12-22.49-37.55-46.64-37.55a50,50,0,0,0-29.66,9.52C179,18.12,157.05,5.48,132.22,5.48c-39.35,0-71.6,31.76-74.68,72.13a43.4,43.4,0,1,0-12,85.79,56.75,56.75,0,0,0,96.7,28.83,39.43,39.43,0,0,0,52.58,5.28,62.09,62.09,0,0,0,47,21.82c27.58,0,51-18.43,59.78-44.16a45.3,45.3,0,1,0,13.89-88.42Z"/><path class="cls-36" d="M314.93,86.2a45,45,0,0,0-9.2.94A39.56,39.56,0,0,0,270.22,65c-.61,0-1.2.06-1.8.09-2.61-21.13-22.49-37.56-46.63-37.56A50.08,50.08,0,0,0,192.12,37C178.48,17.57,156.49,4.93,131.67,4.93,92.32,4.93,60.07,36.69,57,77.05a43.88,43.88,0,0,0-8.64-.86A43.4,43.4,0,0,0,45,162.85a56.74,56.74,0,0,0,96.69,28.83A39.44,39.44,0,0,0,194.24,197a62.07,62.07,0,0,0,47,21.82c27.59,0,51.05-18.43,59.79-44.16A45.3,45.3,0,1,0,314.93,86.2Z"/><path class="cls-37" d="M314.38,85.64a45.64,45.64,0,0,0-9.2.94,39.58,39.58,0,0,0-35.52-22.16c-.6,0-1.19.06-1.79.09C265.26,43.38,245.38,27,221.23,27a50,50,0,0,0-29.66,9.52C177.93,17,155.94,4.37,131.12,4.37c-39.36,0-71.6,31.76-74.69,72.13a43.88,43.88,0,0,0-8.64-.87,43.39,43.39,0,0,0-3.38,86.66,56.73,56.73,0,0,0,96.69,28.83,39.41,39.41,0,0,0,52.59,5.28,62,62,0,0,0,47,21.82c27.58,0,51-18.42,59.79-44.16a45.3,45.3,0,1,0,13.89-88.42Z"/><path class="cls-38" d="M313.82,85.09a45.72,45.72,0,0,0-9.2.94,39.56,39.56,0,0,0-35.51-22.17c-.61,0-1.2.07-1.79.09-2.61-21.12-22.49-37.55-46.64-37.55A50,50,0,0,0,191,35.92c-13.64-19.46-35.63-32.1-60.46-32.1C91.21,3.82,59,35.58,55.88,76a43.4,43.4,0,1,0-12,85.79,56.75,56.75,0,0,0,96.7,28.83,39.43,39.43,0,0,0,52.58,5.28,62.09,62.09,0,0,0,47,21.82c27.58,0,51-18.43,59.78-44.16a45.3,45.3,0,1,0,13.89-88.42Z"/><path class="cls-39" d="M313.27,84.54a45,45,0,0,0-9.2.94,39.56,39.56,0,0,0-35.51-22.17c-.61,0-1.2.06-1.8.09-2.61-21.13-22.49-37.56-46.63-37.56a50,50,0,0,0-29.67,9.52C176.82,15.91,154.83,3.27,130,3.27,90.66,3.27,58.41,35,55.32,75.39a43.88,43.88,0,0,0-8.64-.86,43.4,43.4,0,0,0-3.38,86.66A56.74,56.74,0,0,0,140,190a39.44,39.44,0,0,0,52.59,5.28,62.07,62.07,0,0,0,47,21.82c27.59,0,51-18.43,59.79-44.17a45.3,45.3,0,1,0,13.89-88.41Z"/><path class="cls-40" d="M312.72,84a45.64,45.64,0,0,0-9.2.94A39.58,39.58,0,0,0,268,62.76c-.6,0-1.19.06-1.79.09-2.61-21.13-22.49-37.56-46.64-37.56a50,50,0,0,0-29.66,9.52c-13.64-19.46-35.63-32.1-60.45-32.1-39.36,0-71.6,31.76-74.69,72.13a43.4,43.4,0,1,0-12,85.79,56.73,56.73,0,0,0,96.69,28.83A39.41,39.41,0,0,0,192,194.74a62,62,0,0,0,47,21.82c27.58,0,51-18.42,59.79-44.16A45.3,45.3,0,1,0,312.72,84Z"/><path class="cls-41" d="M312.16,83.43a45.72,45.72,0,0,0-9.2.94A39.56,39.56,0,0,0,267.45,62.2c-.61,0-1.2.07-1.8.09-2.6-21.12-22.48-37.55-46.63-37.55a50,50,0,0,0-29.66,9.52C175.72,14.8,153.72,2.16,128.9,2.16c-39.35,0-71.6,31.76-74.68,72.13a43.4,43.4,0,1,0-12,85.79,56.75,56.75,0,0,0,96.7,28.83,39.43,39.43,0,0,0,52.58,5.28,62.07,62.07,0,0,0,47,21.82c27.58,0,51-18.43,59.78-44.16a45.3,45.3,0,1,0,13.89-88.42Z"/><path class="cls-42" d="M311.61,82.88a45,45,0,0,0-9.2.94,39.56,39.56,0,0,0-35.52-22.17c-.6,0-1.19.06-1.79.09-2.61-21.13-22.49-37.56-46.63-37.56A50,50,0,0,0,188.8,33.7C175.16,14.25,153.17,1.61,128.35,1.61,89,1.61,56.75,33.37,53.66,73.73A43.88,43.88,0,0,0,45,72.87a43.4,43.4,0,0,0-3.38,86.66,56.74,56.74,0,0,0,96.69,28.83,39.44,39.44,0,0,0,52.59,5.28,62.07,62.07,0,0,0,47,21.82c27.59,0,51.05-18.43,59.79-44.17a45.3,45.3,0,1,0,13.89-88.41Z"/><path class="cls-43" d="M311.06,82.32a45.64,45.64,0,0,0-9.2.94A39.58,39.58,0,0,0,266.34,61.1c-.6,0-1.19.06-1.79.09-2.61-21.13-22.49-37.56-46.64-37.56a50,50,0,0,0-29.66,9.52c-13.64-19.46-35.63-32.1-60.45-32.1-39.36,0-71.6,31.76-74.69,72.13a43.4,43.4,0,1,0-12,85.79,56.73,56.73,0,0,0,96.69,28.83,39.41,39.41,0,0,0,52.59,5.28,62,62,0,0,0,47,21.82c27.58,0,51-18.43,59.79-44.16a45.3,45.3,0,1,0,13.89-88.42Z"/><path class="cls-44" d="M310.5,81.77a45.72,45.72,0,0,0-9.2.94,39.56,39.56,0,0,0-35.51-22.17c-.61,0-1.2.07-1.8.09-2.6-21.12-22.48-37.55-46.63-37.55A50,50,0,0,0,187.7,32.6C174.06,13.14,152.06.5,127.24.5,87.89.5,55.64,32.26,52.56,72.62a44,44,0,0,0-8.64-.86,43.4,43.4,0,0,0-3.39,86.66,56.74,56.74,0,0,0,96.69,28.83,39.44,39.44,0,0,0,52.59,5.28,62.07,62.07,0,0,0,47,21.82c27.58,0,51-18.43,59.78-44.16A45.3,45.3,0,1,0,310.5,81.77Z"/></g><path class="cls-45" d="M310.5,81.77a45.72,45.72,0,0,0-9.2.94,39.56,39.56,0,0,0-35.51-22.17c-.61,0-1.2.07-1.8.09-2.6-21.12-22.48-37.55-46.63-37.55A50,50,0,0,0,187.7,32.6C174.06,13.14,152.06.5,127.24.5,87.89.5,55.64,32.26,52.56,72.62a44,44,0,0,0-8.64-.86,43.4,43.4,0,0,0-3.39,86.66,56.74,56.74,0,0,0,96.69,28.83,39.44,39.44,0,0,0,52.59,5.28,62.07,62.07,0,0,0,47,21.82c27.58,0,51-18.43,59.78-44.16A45.3,45.3,0,1,0,310.5,81.77Z"/></g></g></g></svg>